# xmcd
#
# Track frame offsets: 
#        160
#        25132
#        42123
#        63756
#        87732
#        102303
#        119422
#        141376
#        156689
#        175955
#        191295
#        203628
#
# Disc length: 3015 seconds
#
# Revision: 0
# Processed by: cddbd v1.5.1PL0 Copyright (c) Steve Scherf et al.
# Submitted via: ExactAudioCopy v0.95a3
#
DISCID=a90bc50c
DTITLE=Various Artist - Союз 16. Vol.2
DYEAR=1995
DGENRE=Pop
TTITLE0=Линда - Мало Огня
TTITLE1=Валерий Меладзе - Так И Скажи
TTITLE2=Кристина Орбакайте - Пароходик Надежда
TTITLE3=Нэнси - Чистый Лист
TTITLE4=Каролина - Мама, Всё O'kей
TTITLE5=Евгений Кемеровский - Волга-Матушка
TTITLE6=Божья Коровка - Любовь Прошла
TTITLE7=Ирина Салтыкова - Серые Глаза
TTITLE8=Виктор Чайка - Куда Ты Денешься?
TTITLE9=Свтелана Лазарева - Лавочка
TTITLE10=Золотое Кольцо - И Льётся Песня
TTITLE11=Алла Пугачёва - Мэри
EXTD=
EXTT0=
EXTT1=
EXTT2=
EXTT3=
EXTT4=
EXTT5=
EXTT6=
EXTT7=
EXTT8=
EXTT9=
EXTT10=
EXTT11=
PLAYORDER=
